<?xml version="1.0" standalone="no"?>
<!DOCTYPE svg PUBLIC "-//W3C//DTD SVG 20010904//EN"
 "http://www.w3.org/TR/2001/REC-SVG-20010904/DTD/svg10.dtd">
<svg version="1.0" xmlns="http://www.w3.org/2000/svg"
 width="900.000000pt" height="897.000000pt" viewBox="0 0 900.000000 897.000000"
 preserveAspectRatio="xMidYMid meet">
<metadata>
Created by potrace 1.10, written by Peter Selinger 2001-2011
</metadata>
<g transform="translate(0.000000,897.000000) scale(0.100000,-0.100000)"
fill="#000000" stroke="none">
<path d="M1300 8956 c0 -17 -21 -26 -63 -26 -18 -1 -43 -7 -57 -15 -14 -8 -34
-14 -45 -15 -11 0 -33 -7 -49 -15 -15 -8 -33 -15 -39 -15 -6 0 -58 -24 -115
-52 -146 -74 -157 -80 -160 -90 -2 -4 -10 -8 -17 -8 -23 0 -177 -123 -276
-220 -122 -121 -265 -312 -310 -414 -5 -12 -13 -28 -18 -36 -11 -19 -35 -74
-55 -127 -9 -24 -22 -60 -30 -80 -8 -21 -22 -69 -31 -108 -9 -38 -21 -86 -26
-105 -6 -22 -9 -1186 -6 -3210 3 -3197 4 -3261 37 -3294 5 -5 10 -21 10 -34 0
-13 6 -36 13 -50 8 -15 21 -43 29 -62 54 -126 150 -290 205 -350 13 -14 23
-29 23 -33 0 -17 207 -221 281 -278 90 -68 270 -179 292 -179 8 0 20 -7 27
-15 7 -8 22 -15 34 -15 12 0 26 -4 31 -9 10 -10 79 -37 130 -51 17 -4 65 -17
107 -29 l78 -21 3207 3 c2170 2 3224 7 3256 14 26 5 53 15 59 21 7 7 23 12 36
12 13 0 36 6 50 14 15 7 68 33 117 57 50 24 112 59 139 76 26 18 50 33 53 33
27 0 302 254 371 342 80 104 135 189 178 278 26 52 50 103 55 112 34 69 86
243 100 338 6 36 15 81 21 100 8 25 14 623 20 2030 5 1097 10 2011 12 2030 1
19 3 59 4 88 1 33 6 51 12 47 7 -4 10 308 10 929 0 812 -2 936 -15 936 -14 0
-19 17 -30 120 -3 30 -10 69 -15 85 -5 17 -17 57 -26 90 -31 111 -95 260 -168
390 -65 117 -247 329 -361 420 -27 22 -56 45 -63 52 -11 11 -118 82 -167 110
-90 54 -289 143 -319 143 -11 0 -30 7 -40 15 -11 8 -35 15 -54 15 -18 0 -43 5
-55 12 -12 6 -60 15 -106 18 -61 5 -87 12 -96 23 -11 16 -242 17 -3099 17
-2631 0 -3086 -2 -3086 -14z m2383 -2133 c8 -14 -7 -41 -48 -84 -22 -24 -51
-57 -65 -75 -14 -17 -92 -111 -175 -209 -82 -97 -161 -192 -175 -209 -14 -18
-48 -59 -76 -92 -29 -32 -87 -102 -131 -154 -124 -150 -126 -152 -168 -194
-22 -23 -65 -70 -95 -105 -30 -35 -60 -69 -65 -75 -6 -6 -28 -33 -50 -61 -22
-27 -48 -59 -59 -70 -10 -11 -44 -51 -75 -90 -31 -38 -61 -74 -67 -80 -30 -29
-84 -106 -84 -120 0 -13 301 -387 359 -446 9 -9 40 -46 70 -82 30 -36 59 -68
66 -71 7 -2 61 -64 120 -137 60 -72 118 -142 129 -154 12 -13 46 -53 76 -90
30 -38 68 -82 83 -99 16 -17 54 -62 85 -101 31 -38 59 -72 62 -75 3 -3 64 -75
135 -160 71 -85 135 -159 142 -163 17 -10 17 -44 1 -50 -17 -5 -488 2 -513 9
-11 3 -71 62 -133 132 -62 70 -129 145 -150 167 -20 22 -102 112 -181 200 -80
88 -148 162 -151 165 -3 3 -70 77 -150 165 -80 88 -165 183 -191 210 -25 28
-66 72 -90 100 -48 54 -106 118 -216 235 -103 109 -213 240 -213 251 0 9 52
67 245 275 89 96 233 252 245 264 12 13 170 185 230 250 8 9 44 48 80 86 36
38 92 98 124 134 33 36 92 99 130 140 39 42 116 125 171 185 55 60 138 149
184 197 l84 88 248 0 c136 0 250 -3 252 -7z m1042 -20 c0 -14 -34 -57 -95
-120 -52 -54 -142 -150 -199 -213 -57 -63 -145 -158 -195 -210 -50 -52 -138
-147 -195 -210 -58 -63 -148 -160 -200 -216 -93 -97 -144 -152 -261 -279 -30
-33 -111 -120 -180 -193 -69 -74 -128 -140 -133 -147 -8 -16 66 -106 252 -305
65 -69 137 -147 162 -175 94 -106 126 -141 192 -211 38 -40 76 -82 86 -93 19
-22 186 -204 211 -231 8 -9 60 -65 114 -125 55 -61 148 -162 206 -225 59 -63
126 -137 151 -165 24 -27 52 -56 62 -63 9 -7 17 -22 17 -33 0 -18 -10 -19
-385 -19 -402 0 -428 3 -452 44 -7 11 -96 116 -129 150 -5 6 -37 43 -70 82
-99 118 -307 358 -318 369 -13 12 -64 70 -126 145 -25 29 -50 58 -55 64 -6 6
-55 63 -110 126 -54 63 -115 132 -134 153 -19 20 -43 51 -54 69 -10 18 -30 44
-42 58 -13 14 -56 63 -96 110 -39 47 -75 87 -78 90 -27 21 -141 164 -141 176
0 9 27 46 59 82 153 172 303 348 309 362 4 12 84 108 137 166 6 6 30 35 55 65
25 30 66 76 91 104 25 27 88 100 139 160 52 61 98 112 101 115 4 3 34 37 66
76 32 39 90 107 128 151 39 44 119 136 179 206 60 69 114 128 120 131 6 2 191
4 411 3 l400 -2 0 -22z m528 -1547 c19 -7 63 -50 107 -102 41 -49 77 -91 80
-94 3 -3 41 -48 84 -100 44 -52 84 -99 90 -105 6 -5 36 -41 67 -80 31 -38 65
-79 76 -90 10 -11 66 -76 123 -143 58 -68 150 -177 205 -242 55 -65 155 -182
222 -261 67 -79 136 -160 153 -179 61 -68 150 -183 150 -194 0 -6 -12 -25 -27
-42 -16 -18 -56 -65 -90 -105 -33 -41 -70 -83 -80 -94 -10 -11 -38 -45 -62
-75 -24 -30 -72 -86 -106 -125 -35 -38 -81 -92 -103 -120 -22 -27 -54 -65 -72
-84 -17 -18 -57 -66 -88 -105 -31 -39 -60 -73 -63 -76 -3 -3 -39 -43 -78 -90
-40 -47 -92 -108 -116 -136 -24 -27 -83 -97 -131 -155 -49 -57 -141 -166 -206
-242 -65 -76 -118 -145 -118 -152 0 -32 -37 -35 -417 -30 -208 3 -386 5 -396
5 -15 0 -16 3 -7 20 6 11 23 33 38 49 125 131 181 191 267 285 114 125 124
136 220 237 39 41 115 123 170 183 55 60 114 124 130 141 53 55 263 279 283
303 21 24 200 217 289 312 81 85 89 69 -142 315 -67 72 -159 173 -205 225 -46
52 -114 127 -150 165 -76 80 -159 170 -216 234 -21 25 -46 52 -54 61 -8 9 -62
67 -119 130 -57 63 -138 151 -180 195 -42 44 -107 116 -146 160 -38 44 -72 82
-75 85 -79 82 -101 110 -96 119 11 17 747 15 789 -3z m726 -5 c20 -11 55 -41
76 -68 37 -45 84 -98 145 -163 39 -41 212 -230 255 -279 22 -25 47 -52 55 -61
8 -8 53 -58 100 -110 47 -52 114 -126 150 -164 84 -90 83 -88 165 -182 76 -87
152 -169 203 -222 19 -19 90 -98 160 -176 69 -77 128 -143 131 -146 3 -3 12
-13 20 -22 16 -21 15 -22 -184 -233 -72 -77 -160 -171 -195 -210 -35 -38 -123
-133 -195 -210 -73 -77 -153 -165 -180 -195 -26 -30 -109 -120 -184 -200 -76
-80 -182 -194 -237 -255 -54 -60 -146 -158 -203 -217 l-104 -108 -239 0 c-199
0 -238 2 -238 14 0 8 4 16 8 18 5 2 28 28 51 58 24 30 73 88 110 129 36 41 75
87 87 102 11 15 50 61 86 101 36 40 90 102 119 138 29 36 87 103 129 150 41
47 93 108 115 134 44 53 43 52 100 117 22 24 58 67 80 94 22 27 63 74 90 105
28 31 68 78 90 105 22 26 67 80 101 119 34 39 74 86 90 105 16 19 45 53 65 75
60 69 59 79 -27 181 -86 102 -172 202 -194 225 -8 9 -33 38 -54 65 -22 28 -76
91 -121 140 -45 50 -86 97 -91 106 -5 9 -37 47 -70 85 -34 38 -80 92 -103 119
-24 28 -54 64 -68 80 -15 17 -107 125 -206 240 -99 116 -185 215 -191 220 -6
6 -29 33 -51 60 -22 28 -48 59 -58 70 -11 11 -26 31 -35 43 -13 20 -13 25 -1
33 8 5 103 9 212 9 176 0 202 -2 236 -19z"/>
</g>
</svg>
